HIERARCHY
ROOT Hips
{
	OFFSET 0.00000 0.00000 0.00000
	CHANNELS 6 Xposition Yposition Zposition Zrotation Yrotation Xrotation 
	JOINT LHipJoint
	{
		OFFSET 0 0 0
		CHANNELS 3 Zrotation Yrotation Xrotation
		JOINT LeftUpLeg
		{
			OFFSET 1.44960 -1.75505 0.85172
			CHANNELS 3 Zrotation Yrotation Xrotation
			JOINT LeftLeg
			{
				OFFSET 2.40573 -6.60971 0.00000
				CHANNELS 3 Zrotation Yrotation Xrotation
				JOINT LeftFoot
				{
					OFFSET 2.58773 -7.10974 0.00000
					CHANNELS 3 Zrotation Yrotation Xrotation
					JOINT LeftToeBase
					{
						OFFSET 0.18252 -0.50147 1.77316
						CHANNELS 3 Zrotation Yrotation Xrotation
						End Site
						{
							OFFSET 0.00000 -0.00000 0.92990
						}
					}
				}
			}
		}
	}
	JOINT RHipJoint
	{
		OFFSET 0 0 0
		CHANNELS 3 Zrotation Yrotation Xrotation
		JOINT RightUpLeg
		{
			OFFSET -1.40744 -1.75505 0.85172
			CHANNELS 3 Zrotation Yrotation Xrotation
			JOINT RightLeg
			{
				OFFSET -2.43714 -6.69600 0.00000
				CHANNELS 3 Zrotation Yrotation Xrotation
				JOINT RightFoot
				{
					OFFSET -2.51650 -6.91404 0.00000
					CHANNELS 3 Zrotation Yrotation Xrotation
					JOINT RightToeBase
					{
						OFFSET -0.25383 -0.69740 1.96384
						CHANNELS 3 Zrotation Yrotation Xrotation
						End Site
						{
							OFFSET -0.00000 -0.00000 1.04244
						}
					}
				}
			}
		}
	}
	JOINT LowerBack
	{
		OFFSET 0 0 0
		CHANNELS 3 Zrotation Yrotation Xrotation
		JOINT Spine
		{
			OFFSET 0.00579 2.14458 -0.24367
			CHANNELS 3 Zrotation Yrotation Xrotation
			JOINT Spine1
			{
				OFFSET 0.05899 2.16316 -0.04515
				CHANNELS 3 Zrotation Yrotation Xrotation
				JOINT Neck
				{
					OFFSET 0 0 0
					CHANNELS 3 Zrotation Yrotation Xrotation
					JOINT Neck1
					{
						OFFSET -0.01650 1.59577 0.24841
						CHANNELS 3 Zrotation Yrotation Xrotation
						JOINT Head
						{
							OFFSET -0.01016 1.63072 -0.17782
							CHANNELS 3 Zrotation Yrotation Xrotation
							End Site
							{
								OFFSET -0.00250 1.64111 -0.08717
							}
						}
					}
				}
				JOINT LeftShoulder
				{
					OFFSET 0 0 0
					CHANNELS 3 Zrotation Yrotation Xrotation
					JOINT LeftArm
					{
						OFFSET 3.17745 0.95174 -0.45729
						CHANNELS 3 Zrotation Yrotation Xrotation
						JOINT LeftForeArm
						{
							OFFSET 4.93485 -0.00000 0.00000
							CHANNELS 3 Zrotation Yrotation Xrotation
							JOINT LeftHand
							{
								OFFSET 3.41719 -0.00000 -0.00000
								CHANNELS 3 Zrotation Yrotation Xrotation
								JOINT LeftFingerBase
								{
									OFFSET 0 0 0
									CHANNELS 3 Zrotation Yrotation Xrotation
									JOINT LeftHandIndex1
									{
										OFFSET 0.62410 -0.00000 -0.00000
										CHANNELS 3 Zrotation Yrotation Xrotation
										End Site
										{
											OFFSET 0.50317 -0.00000 -0.00000
										}
									}
								}
								JOINT LThumb
								{
									OFFSET 0 0 0
									CHANNELS 3 Zrotation Yrotation Xrotation
									End Site
									{
										OFFSET 0.51085 -0.00000 0.51085
									}
								}
							}
						}
					}
				}
				JOINT RightShoulder
				{
					OFFSET 0 0 0
					CHANNELS 3 Zrotation Yrotation Xrotation
					JOINT RightArm
					{
						OFFSET -2.87924 1.13038 -0.75204
						CHANNELS 3 Zrotation Yrotation Xrotation
						JOINT RightForeArm
						{
							OFFSET -5.22034 -0.00000 0.00000
							CHANNELS 3 Zrotation Yrotation Xrotation
							JOINT RightHand
							{
								OFFSET -3.41809 -0.00000 -0.00000
								CHANNELS 3 Zrotation Yrotation Xrotation
								JOINT RightFingerBase
								{
									OFFSET 0 0 0
									CHANNELS 3 Zrotation Yrotation Xrotation
									JOINT RightHandIndex1
									{
										OFFSET -0.77534 -0.00000 -0.00000
										CHANNELS 3 Zrotation Yrotation Xrotation
										End Site
										{
											OFFSET -0.62510 -0.00000 -0.00000
										}
									}
								}
								JOINT RThumb
								{
									OFFSET 0 0 0
									CHANNELS 3 Zrotation Yrotation Xrotation
									End Site
									{
										OFFSET -0.63464 -0.00000 0.63464
									}
								}
							}
						}
					}
				}
			}
		}
	}
}
MOTION
Frames: 10
Frame Time: .0083333
1.2157 17.5373 -35.2832 0 0 0 0 0 0 -21 0 0 0 0 0 0 0 0 0 0 0 0 0 0 21 0 0 0 0 0 0 0 0 0 0 0 0 0 0 0 0 0 0 0 0 0 0 -16 0 0 21 0 0 11 0 0 0 -8 0 0 0 0 0 0 0 0 0 0 0 0 0 0 0 0 0 0 0 0 8 0 0 0 0 0 0 0 0 0 0 0 0 0 0 0 0 0
1.2157 17.5373 -35.2832 -4.6628 1.1767 8.7548 0.0000 0.0000 0.0000 -13.0130 -7.3533 -8.7218 1.8195 8.4794 24.1801 1.4000 2.6189 -23.4300 0.3326 -3.7065 -10.2523 0.0000 0.0000 0.0000 21.7542 5.4870 -8.0721 -1.4158 -7.5252 21.2809 -1.1190 -3.9029 -21.7432 -0.0059 -0.4944 1.3585 -0.5635 -0.6111 -7.1515 3.8764 -0.8407 -2.8195 4.2587 -0.4020 1.1635 -0.9838 -1.4662 -19.3297 0.9541 -1.8977 14.2411 0.2482 -0.8646 7.5719 0.0000 0.0000 0.0000 -90.7730 6.2648 21.3297 16.5541 -26.2662 -3.8879 -0.0000 -0.0000 4.4690 5.0723 42.9617 3.4616 -7.1250 0.0000 -0.0000 -44.9619 67.9519 -26.8195 0.0000 0.0000 0.0000 83.9716 -2.5101 24.4308 -13.3586 21.8104 -2.5850 0.0000 -0.0000 -12.1032 -14.5688 16.7435 -4.2820 7.1250 -0.0000 -0.0000 8.8085 -12.8625 6.7082
1.2147 17.5388 -35.2880 -4.7758 1.1496 8.7691 0.0000 0.0000 0.0000 -12.8765 -7.4134 -8.8073 1.8386 8.5215 24.3098 1.4348 2.3894 -23.5999 0.2152 -2.9863 -8.2405 0.0000 0.0000 0.0000 21.8852 5.6052 -8.0916 -1.3992 -7.4830 21.1545 -1.1092 -4.0854 -21.7591 -0.0053 -0.4679 1.2857 -0.4463 -0.6194 -7.1591 3.8894 -0.8614 -2.7738 4.2037 -0.4140 1.2152 -0.9838 -1.4803 -19.4882 1.0175 -1.9295 14.4388 0.2638 -0.8721 7.6653 -0.0000 -0.0000 0.0000 -90.6728 6.0695 21.4007 16.4894 -26.1797 -3.8593 -0.0000 -0.0000 4.3350 5.1152 42.9373 3.4894 -7.1250 0.0000 -0.0000 -44.8760 67.9485 -26.7571 -0.0000 -0.0000 0.0000 83.9842 -2.4506 24.6526 -13.4838 21.9920 -2.6317 0.0000 -0.0000 -12.0929 -14.5604 16.8038 -4.2943 7.1250 -0.0000 -0.0000 8.8152 -12.8022 6.7246
1.2168 17.5356 -35.2875 -4.7685 1.1579 8.7920 0.0000 0.0000 0.0000 -12.8966 -7.4238 -8.8426 1.8441 8.5335 24.3466 1.4212 2.5943 -23.5860 0.3060 -3.5566 -9.8326 0.0000 0.0000 0.0000 21.8727 5.5099 -8.0569 -1.3938 -7.4691 21.1127 -1.1049 -3.9817 -21.6641 -0.0029 -0.3457 0.9498 -0.4663 -0.6192 -7.1279 3.9137 -0.8581 -2.8278 4.2412 -0.4108 1.1425 -1.2519 -1.4944 -19.4353 1.2673 -1.9210 14.4006 0.3915 -0.8585 7.6490 0.0000 0.0000 0.0000 -90.7402 6.1310 21.4169 16.5051 -26.2007 -3.8663 -0.0000 -0.0000 4.5429 5.0256 43.7541 3.4802 -7.1250 0.0000 -0.0000 -46.4940 68.4715 -28.3942 0.0000 0.0000 0.0000 83.9240 -2.5447 24.7299 -13.5944 22.1519 -2.6733 0.0000 -0.0000 -12.1917 -14.6380 16.4107 -4.2203 7.1250 -0.0000 -0.0000 8.7575 -13.1935 6.6068
1.2197 17.5324 -35.2927 -4.8106 1.1152 8.7524 0.0000 0.0000 0.0000 -12.8801 -7.5922 -8.7748 1.8528 8.5525 24.4054 1.4227 2.6779 -23.6357 0.2436 -3.1762 -8.7697 0.0000 0.0000 0.0000 21.8895 5.4999 -8.0396 -1.3857 -7.4483 21.0504 -1.1003 -3.9149 -21.5872 -0.0075 -0.5585 1.5348 -0.3797 -0.6559 -7.1272 3.9220 -0.9136 -2.8094 4.1960 -0.4395 1.1642 -1.0187 -1.4727 -19.3407 0.9592 -1.9004 14.4725 0.2544 -0.8667 7.6510 -0.0000 -0.0000 0.0000 -90.6374 6.3073 21.7966 16.6460 -26.3888 -3.9287 -0.0000 -0.0000 4.0066 5.0347 43.8536 3.4928 -7.1250 0.0000 -0.0000 -46.6776 68.5404 -28.5920 -0.0000 -0.0000 0.0000 83.8808 -2.4660 24.9027 -13.5874 22.1418 -2.6706 0.0000 -0.0000 -12.2146 -14.6936 16.5490 -4.2716 7.1250 -0.0000 -0.0000 8.7226 -13.0479 6.6068
1.2215 17.5420 -35.2890 -4.8618 0.9779 8.8189 0.0000 0.0000 0.0000 -12.8495 -7.4667 -8.8456 1.8573 8.5623 24.4354 1.4219 2.8185 -23.6950 0.3005 -3.5246 -9.7430 0.0000 0.0000 0.0000 21.9159 5.6452 -8.0284 -1.3825 -7.4399 21.0254 -1.1121 -3.8252 -21.6413 -0.0072 -0.5483 1.5067 -0.3120 -0.5765 -7.2779 3.9143 -0.8172 -2.7376 4.1565 -0.3938 1.3137 -0.8143 -1.4910 -19.3359 0.6847 -1.9273 14.1555 0.1284 -0.8963 7.5401 -0.0000 -0.0000 0.0000 -90.6706 6.0263 21.5574 16.5135 -26.2120 -3.8700 -0.0000 -0.0000 4.5676 4.4563 44.1031 3.1046 -7.1250 0.0000 -0.0000 -47.7038 68.5188 -29.3024 -0.0000 -0.0000 0.0000 83.8414 -2.3677 25.1269 -13.7191 22.3318 -2.7205 0.0000 -0.0000 -12.5361 -14.7147 16.1054 -4.1667 7.1250 -0.0000 -0.0000 8.7022 -13.4962 6.5081
1.2234 17.5344 -35.2961 -4.8737 1.0008 8.7736 0.0000 0.0000 0.0000 -12.8535 -7.5929 -8.7741 1.8570 8.5616 24.4332 1.4029 2.9280 -23.5966 0.2826 -3.4188 -9.4469 0.0000 0.0000 0.0000 21.9188 5.5667 -8.0520 -1.3825 -7.4399 21.0252 -1.1084 -3.8251 -21.6087 -0.0116 -0.6958 1.9122 -0.3055 -0.6056 -7.0964 3.9358 -0.8520 -2.7867 4.1734 -0.4091 1.1651 -0.9500 -1.4551 -19.3887 0.8486 -1.8735 14.3962 0.2099 -0.8611 7.6316 -0.0000 0.0000 0.0000 -90.6283 6.2165 21.9796 16.6534 -26.3986 -3.9320 -0.0000 -0.0000 4.0978 4.7052 44.1913 3.2836 -7.1250 0.0000 -0.0000 -47.6457 68.6562 -29.3980 -0.0000 0.0000 0.0000 83.8248 -2.3226 25.0252 -13.7130 22.3229 -2.7181 0.0000 -0.0000 -12.4050 -14.6961 16.0267 -4.1415 7.1250 -0.0000 -0.0000 8.7136 -13.5777 6.5016
1.2220 17.5334 -35.2986 -4.9176 0.8757 8.7972 0.0000 0.0000 0.0000 -12.7938 -7.4141 -8.8586 1.8574 8.5625 24.4362 1.4248 2.6969 -23.6613 0.2811 -3.4098 -9.4219 0.0000 0.0000 0.0000 21.9709 5.6109 -8.0613 -1.3821 -7.4390 21.0227 -1.0908 -3.8514 -21.4686 -0.0025 -0.3239 0.8898 -0.3189 -0.6219 -7.1529 4.0017 -0.8741 -2.8175 4.2480 -0.4197 1.1674 -0.8085 -1.4553 -18.9445 0.5547 -1.8583 13.9747 0.0960 -0.8777 7.4124 0.0000 -0.0000 0.0000 -90.7272 6.2614 21.7623 16.5955 -26.3214 -3.9063 -0.0000 -0.0000 4.2127 4.6020 44.1293 3.2078 -7.1250 0.0000 -0.0000 -47.6198 68.5826 -29.3059 0.0000 -0.0000 0.0000 83.6838 -2.4041 25.3766 -13.7762 22.4138 -2.7422 0.0000 -0.0000 -12.7108 -15.0102 16.4971 -4.3543 7.1250 -0.0000 -0.0000 8.5110 -13.0706 6.4388
1.2247 17.5345 -35.2980 -4.9474 0.7113 8.8193 0.0000 0.0000 0.0000 -12.8144 -7.4894 -8.8173 1.8572 8.5621 24.4348 1.4153 3.0146 -23.7350 0.2777 -3.3893 -9.3645 0.0000 0.0000 0.0000 21.9449 5.6137 -8.1203 -1.3812 -7.4365 21.0153 -1.0928 -3.6791 -21.3926 -0.0040 -0.4100 1.1265 -0.2958 -0.5153 -7.0476 3.9921 -0.7300 -2.8594 4.2372 -0.3460 1.0542 -1.0340 -1.4666 -19.3574 0.7263 -1.8447 14.5615 0.1861 -0.8643 7.6805 -0.0000 0.0000 0.0000 -90.6728 6.3007 22.0004 16.5937 -26.3190 -3.9055 -0.0000 -0.0000 4.1704 4.7324 43.8932 3.2849 -7.1250 0.0000 -0.0000 -47.0379 68.4698 -28.7784 -0.0000 0.0000 0.0000 83.7205 -2.3897 25.0519 -13.8178 22.4737 -2.7581 0.0000 -0.0000 -12.5279 -14.9036 16.2029 -4.2473 7.1250 -0.0000 -0.0000 8.5774 -13.3796 6.4338
1.2212 17.5342 -35.3018 -4.9686 0.6695 8.8178 0.0000 0.0000 0.0000 -12.7638 -7.2928 -8.8801 1.8543 8.5558 24.4153 1.4071 2.9741 -23.6515 0.3280 -3.6810 -10.1810 0.0000 0.0000 0.0000 21.9891 5.7190 -8.0917 -1.3867 -7.4508 21.0578 -1.0950 -3.7216 -21.4347 -0.0050 -0.4577 1.2578 -0.3209 -0.5764 -7.1339 4.0368 -0.8131 -2.8383 4.2910 -0.3885 1.1311 -1.1362 -1.4111 -19.1454 0.8045 -1.7567 14.4071 0.2409 -0.8214 7.5942 0.0000 0.0000 0.0000 -90.7680 6.2648 21.6191 16.4787 -26.1655 -3.8547 -0.0000 -0.0000 4.2748 5.0901 43.2458 3.4923 -7.1250 0.0000 -0.0000 -45.4699 68.1510 -27.3633 0.0000 0.0000 0.0000 83.6530 -2.3842 25.2930 -13.8461 22.5142 -2.7689 0.0000 -0.0000 -12.6959 -14.8346 16.5509 -4.3147 7.1250 -0.0000 -0.0000 8.6288 -13.0327 6.5369
